<svg xmlns="http://www.w3.org/2000/svg" version="1.1" xmlns:xlink="http://www.w3.org/1999/xlink" xmlns:svgjs="http://svgjs.dev/svgjs" width="2000" height="2024" viewBox="0 0 2000 2024"><g transform="matrix(1,0,0,1,1.767868852458946,0.8194331983804659)"><svg viewBox="0 0 244 247" data-background-color="#282634" preserveAspectRatio="xMidYMid meet" height="2024" width="2000" xmlns="http://www.w3.org/2000/svg" xmlns:xlink="http://www.w3.org/1999/xlink"><g id="tight-bounds" transform="matrix(1,0,0,1,-0.21567999999999188,-0.09999999999999432)"><svg viewBox="0 0 244.43135999999998 247.2" height="247.2" width="244.43135999999998"><g><svg></svg></g><g><svg viewBox="0 0 244.43135999999998 247.2" height="247.2" width="244.43135999999998"><g transform="matrix(1,0,0,1,0,76.1349964673615)"><svg viewBox="0 0 244.43135999999998 94.930007065277" height="94.930007065277" width="244.43135999999998"><g><svg viewBox="0 0 244.43135999999998 94.930007065277" height="94.930007065277" width="244.43135999999998"><g><svg viewBox="0 0 244.43135999999998 94.930007065277" height="94.930007065277" width="244.43135999999998"><g><svg viewBox="0 0 244.43135999999998 94.930007065277" height="94.930007065277" width="244.43135999999998"><g><svg viewBox="0 0 244.43135999999998 94.930007065277" height="94.930007065277" width="244.43135999999998" id="textblock"><g><svg viewBox="0 0 244.43135999999998 94.930007065277" height="94.930007065277" width="244.43135999999998"><g transform="matrix(1,0,0,1,0,0)"><svg width="244.43135999999998" viewBox="5.25 -35.400001525878906 91.1500015258789 35.400001525878906" height="94.930007065277" data-palette-color="#ff4057"><path d="M43.5-35.4Q49.55-35.4 52.95-31.9 56.35-28.4 56.35-21.75L56.35-21.75 56.35 0 51.4 0 51.4-21.6Q51.4-26.2 49-28.58 46.6-30.95 42.65-30.95L42.65-30.95Q38.3-30.95 35.77-28.48 33.25-26 33.25-20.9L33.25-20.9 33.25 0 28.3 0 28.3-21.6Q28.3-26.25 26.03-28.6 23.75-30.95 19.8-30.95L19.8-30.95Q15.4-30.95 12.83-28.45 10.25-25.95 10.25-20.9L10.25-20.9 10.25 0 5.25 0 5.25-35 10.05-35 10.05-29.9Q11.6-32.5 14.43-33.95 17.25-35.4 21-35.4L21-35.4Q24.9-35.4 27.73-33.85 30.55-32.3 31.9-29.55L31.9-29.55Q33.55-32.35 36.58-33.88 39.6-35.4 43.5-35.4L43.5-35.4ZM81.3-35.4Q88.3-35.4 92.35-31.33 96.4-27.25 96.4-19.65L96.4-19.65 96.4 0 91.4 0 91.4-9.65 71.2-9.65 71.2 0 66.3 0 66.3-19.65Q66.3-27.25 70.35-31.33 74.4-35.4 81.3-35.4L81.3-35.4ZM71.2-14L91.4-14 91.4-20.1Q91.4-25.45 88.72-28.2 86.05-30.95 81.3-30.95L81.3-30.95Q76.55-30.95 73.87-28.2 71.2-25.45 71.2-20.1L71.2-20.1 71.2-14Z" opacity="1" transform="matrix(1,0,0,1,0,0)" fill="#ff4057" class="undefined-text-0" data-fill-palette-color="primary" id="text-0"></path></svg></g></svg></g></svg></g></svg></g><g></g></svg></g></svg></g></svg></g><path d="M0 70.135L0 1 244.431 1 244.431 70.135 235.87 70.135 235.87 9.561 8.561 9.561 8.561 70.135 0 70.135M0 177.065L0 246.2 244.431 246.2 244.431 177.065 235.87 177.065 235.87 237.639 8.561 237.639 8.561 177.065 0 177.065" fill="#ff4057" stroke="transparent" data-fill-palette-color="primary"></path></svg></g><defs></defs></svg><rect width="244.43135999999998" height="247.2" fill="none" stroke="none" visibility="hidden"></rect></g></svg></g></svg>